HIERARCHY
ROOT pelvis
{
  OFFSET 0 100 0
  CHANNELS 6 Xposition Yposition Zposition Zrotation Xrotation Yrotation
  JOINT pelvis_right_femur
  {
    OFFSET -10.78128 -3.44521 -0.5502486
    CHANNELS 3 Zrotation Xrotation Yrotation
    JOINT right_femur_tibia
    {
      OFFSET -0.8047443 -44.0398 -0.1307829
      CHANNELS 3 Zrotation Xrotation Yrotation
      JOINT right_tibia_foot
      {
        OFFSET 3.006224 -47.83518 -5
        CHANNELS 3 Zrotation Xrotation Yrotation
        End Site
        {
          OFFSET 0 -5 15
        }
      }
    }
  }
  JOINT pelvis_left_femur
  {
    OFFSET 10.78128 -3.44521 -0.5502486
    CHANNELS 3 Zrotation Xrotation Yrotation
    JOINT left_femur_tibia
    {
      OFFSET 0.8047443 -44.0398 -0.1307829
      CHANNELS 3 Zrotation Xrotation Yrotation
      JOINT left_tibia_foot
      {
        OFFSET -4.370144 -48.10324 -4.275266
        CHANNELS 3 Zrotation Xrotation Yrotation
        End Site
        {
          OFFSET 0 -5 15
        }
      }
    }
  }
  JOINT pelvis_spine1
  {
    OFFSET 0 6.468898 -3.129235
    CHANNELS 3 Zrotation Xrotation Yrotation
    JOINT spine1
    {
      OFFSET 0 23.15396 4.99043
      CHANNELS 3 Zrotation Xrotation Yrotation
      JOINT spine2
      {
        OFFSET 0 20.79997 -5.064912
        CHANNELS 3 Zrotation Xrotation Yrotation
        JOINT neck
        {
          OFFSET 0 14.38658 9.616178
          CHANNELS 3 Zrotation Xrotation Yrotation
          End Site
          {
            OFFSET 0 20 0
          }
        }
      }
      JOINT right_manubrium
      {
        OFFSET -5.722621 16.35077 3.967754
        CHANNELS 3 Zrotation Xrotation Yrotation
        JOINT right_clavicle
        {
          OFFSET -13.16364 1.694482 -4.693211
          CHANNELS 3 Zrotation Xrotation Yrotation
          JOINT right_humerus
          {
            OFFSET -28.5034 -0.3100689 -2.792744
            CHANNELS 3 Zrotation Xrotation Yrotation
            JOINT right_radius
            {
              OFFSET -25.15693 0.02248979 -1.271978
              CHANNELS 3 Zrotation Xrotation Yrotation
              End Site
              {
                OFFSET -15 0 0
              }
            }
          }
        }
      }
      JOINT left_manubrium
      {
        OFFSET 5.722621 16.35077 3.967754
        CHANNELS 3 Zrotation Xrotation Yrotation
        JOINT left_clavicle
        {
          OFFSET 13.16364 1.694482 -4.693211
          CHANNELS 3 Zrotation Xrotation Yrotation
          JOINT left_humerus
          {
            OFFSET 29.39168 -1.063119 -2.237045
            CHANNELS 3 Zrotation Xrotation Yrotation
            JOINT left_radius
            {
              OFFSET 24.59957 -0.9528479 0.9047498
              CHANNELS 3 Zrotation Xrotation Yrotation
              End Site
              {
                OFFSET 15 -0 -0
              }
            }
          }
        }
      }
    }
  }
}
MOTION
Frames: 19
Frame Time: 0.0416666666667
61.13575 102.0154 253.1141 3.88279 -8.192604 7.731355 0.4987001 11.18163 5.498463 -0 21.69012 -0 3.912642 -10.82182 -2.848074 -3.316982 -12.92466 -6.004704 -0 25.51264 -0 -7.447098 -9.63988 17.24466 -1.644412 -0.3917413 7.907456 -1.420721 10.21533 -3.219403 2.27473 22.18702 4.384881 1.415449 -14.50286 6.493064 1.420663 -19.48807 11.04937 84.48474 21.40503 -10.74278 -0 0 21.58888 -21.74233 10.91948 11.27924 4.999318 -15.96707 -3.719148 -90.55072 24.09064 19.46562 0 0 -14.25268 -2.961005 6.203278 16.35651
62.71008 101.8893 259.0215 4.077541 -8.317653 8.190948 0.1753827 9.825135 5.165126 -0 24.15945 -0 3.795217 -10.58701 -3.267891 -3.855396 -11.3144 -6.447531 -0 24.51061 -0 -7.202058 -10.39402 17.0434 -1.873473 -0.339254 7.616184 -1.417869 9.9977 -3.290626 2.358788 22.39986 4.355474 1.291948 -14.3636 6.671287 1.342137 -19.11557 10.82652 84.8717 21.29798 -11.05385 -0 0 21.04069 -21.50131 10.82373 11.01955 4.974463 -15.93232 -3.758836 -90.06427 24.43612 18.66907 0 0 -14.25946 -2.903541 6.346547 16.2687
64.28984 101.8585 264.8658 4.271519 -8.417063 8.76592 -0.1239355 8.101529 4.796307 -0 26.39074 -0 3.599853 -10.25323 -3.75792 -4.409408 -9.260392 -6.896209 -0 23.81396 -0 -6.969582 -11.15105 16.79156 -2.10581 -0.3008099 7.26033 -1.367569 9.785118 -3.429312 2.445251 22.61991 4.329453 1.177008 -14.24466 6.853015 1.289597 -18.63656 10.59701 85.35279 21.2556 -11.56573 -0 0 20.2391 -21.18657 10.75214 10.69084 4.958869 -15.98631 -3.815423 -89.43605 24.78548 17.6242 0 0 -14.42854 -2.775491 6.536367 16.09553
65.86568 101.9229 270.657 4.455499 -8.480811 9.434326 -0.3871738 6.119025 4.41401 -0 28.18004 -0 3.321039 -9.875736 -4.290053 -4.932097 -6.90477 -7.316813 -0 23.41884 -0 -6.763413 -11.88719 16.50807 -2.330148 -0.2715504 6.86029 -1.274424 9.573218 -3.621296 2.53652 22.84137 4.300446 1.073536 -14.14811 7.0304 1.247192 -18.07694 10.36388 85.89739 21.26465 -12.22994 -0 0 19.2422 -20.80617 10.69697 10.30386 4.958356 -16.12001 -3.877835 -88.70367 25.12585 16.37858 0 0 -14.7473 -2.579593 6.773355 15.83559
67.42911 102.0682 276.4118 4.619412 -8.501572 10.16644 -0.6027618 3.982984 4.039958 -0 29.35133 -0 2.954422 -9.506026 -4.837443 -5.386093 -4.386595 -7.684864 -0 23.31139 -0 -6.59428 -12.58146 16.21096 -2.536514 -0.2470504 6.435861 -1.143625 9.357843 -3.852348 2.634619 23.05892 4.262754 0.9839901 -14.07549 7.196342 1.199949 -17.4626 10.13015 86.47603 21.31257 -12.99811 -0 0 18.10829 -20.36933 10.65056 9.870294 4.978013 -16.32316 -3.935701 -87.90537 25.4462 14.98212 0 0 -15.20012 -2.319657 7.056826 15.48937
68.97253 102.2695 282.1513 4.754006 -8.476808 10.92793 -0.761703 1.786082 3.692434 -0 29.79246 -0 2.499231 -9.183804 -5.377803 -5.747911 -1.826312 -7.987603 -0 23.4695 -0 -6.46824 -13.21741 15.91562 -2.717571 -0.2239221 6.004134 -0.9808881 9.136385 -4.109375 2.740627 23.26839 4.212368 0.9099061 -14.02738 7.345479 1.136605 -16.81727 9.898949 87.06354 21.38866 -13.82665 -0 0 16.89021 -19.88646 10.60648 9.40235 5.020831 -16.58449 -3.980994 -87.0765 25.73835 13.48406 0 0 -15.76729 -2.001146 7.383913 15.06098
70.48921 102.4958 287.8988 4.852147 -8.409482 11.6833 -0.8584817 -0.3910566 3.38496 -0 29.46853 -0 1.959558 -8.934437 -5.893902 -6.007407 0.6761687 -8.222434 -0 23.86568 -0 -6.386233 -13.78237 15.63542 -2.868946 -0.1998145 5.579184 -0.7925544 8.908517 -4.380378 2.854378 23.46714 4.147349 0.8518057 -14.00354 7.474388 1.050708 -16.16246 9.673767 87.63926 21.4843 -14.67693 -0 0 15.63426 -19.36966 10.55979 8.913225 5.086984 -16.89121 -4.008565 -86.24964 25.99716 11.93394 0 0 -16.4225 -1.631826 7.749324 14.55926
71.97359 102.7151 293.6766 4.909723 -8.30799 12.39878 -0.89083 -2.469636 3.126563 -0 28.41975 -0 1.344739 -8.770655 -6.371634 -6.164701 3.031097 -8.39375 -0 24.47034 -0 -6.344274 -14.26454 15.38434 -2.98879 -0.1729525 5.173366 -0.5859544 8.676589 -4.65322 2.974334 23.65426 4.067763 0.8093732 -14.00307 7.581206 0.940416 -15.51949 9.458891 88.18481 21.59264 -15.51101 -0 0 14.38357 -18.83392 10.50662 8.418644 5.173447 -17.22751 -4.015834 -85.45813 26.22031 10.38704 0 0 -17.12835 -1.222779 8.14548 13.9989
73.42169 102.8983 299.5023 4.926313 -8.185958 13.04464 -0.8590336 -4.358453 2.922627 -0 26.75564 -0 0.6694797 -8.695708 -6.797078 -6.22702 5.14329 -8.509977 -0 25.25462 -0 -6.333641 -14.64927 15.18037 -3.077094 -0.1415265 4.79927 -0.3699418 8.445953 -4.913869 3.097472 23.8308 3.975487 0.7817163 -14.02479 7.665032 0.8078565 -14.91247 9.259948 88.68064 21.70804 -16.28565 -0 0 13.18336 -18.29879 10.44352 7.938969 5.273673 -17.57257 -4.002237 -84.74122 26.40817 8.912036 0 0 -17.83059 -0.7897414 8.56274 13.40184
74.83182 103.0236 305.3859 4.905446 -8.06158 13.59671 -0.7653379 -5.945185 2.775498 -0 24.64573 -0 -0.04647502 -8.706333 -7.15438 -6.206279 6.901863 -8.581261 -0 26.19206 -0 -6.341328 -14.91675 15.04752 -3.135094 -0.1032808 4.471026 -0.1551025 8.22497 -5.14538 3.21933 23.99966 3.873937 0.7675874 -14.06743 7.725455 0.6583167 -14.37012 9.084105 89.10375 21.82588 -16.94844 -0 0 12.08442 -17.78916 10.36712 7.500284 5.37759 -17.89958 -3.968738 -84.14683 26.564 7.595234 0 0 -18.45546 -0.353811 8.989897 12.79775
76.20491 103.0787 311.3272 4.853922 -7.955473 14.03715 -0.6137226 -7.103952 2.684513 -0 22.29814 -0 -0.7800529 -8.795143 -7.426266 -6.11703 8.186157 -8.61755 -0 27.25885 -0 -6.3517 -15.04375 15.01387 -3.164851 -0.0556136 4.203659 0.04703807 8.02405 -5.329057 3.334518 24.16513 3.767549 0.7655362 -14.12974 7.762389 0.4990565 -13.92403 8.939306 89.42867 21.94251 -17.44116 -0 0 11.14067 -17.33324 10.2744 7.132282 5.472734 -18.17793 -3.917469 -83.72789 26.69362 6.533979 0 0 -18.91649 0.06012736 9.415332 12.22149
77.54431 103.0619 317.3159 4.779994 -7.886889 14.35416 -0.4100124 -7.720019 2.645673 -0 19.92338 -0 -1.508172 -8.952426 -7.59733 -5.974432 8.888724 -8.627035 -0 28.43247 -0 -6.349671 -15.00939 15.10523 -3.16896 0.003786688 4.010398 0.225838 7.853573 -5.447908 3.437728 24.33162 3.660967 0.7740242 -14.21044 7.776201 0.3376847 -13.60306 8.832568 89.63237 22.05521 -17.71054 -0 0 10.40043 -16.95751 10.16343 6.86272 5.546668 -18.37888 -3.851333 -83.532 26.80395 5.818504 0 0 -19.13166 0.4276598 9.828737 11.70702
78.85502 102.9813 323.3336 4.691172 -7.869984 14.54095 -0.1620917 -7.716799 2.65148 -0 17.69884 -0 -2.211167 -9.166923 -7.657699 -5.792544 8.940866 -8.615466 -0 29.68915 -0 -6.324001 -14.80157 15.33816 -3.150335 0.07614658 3.899645 0.373334 7.721679 -5.490302 3.524754 24.50244 3.558334 0.7915511 -14.30827 7.767945 0.18065 -13.42743 8.768307 89.69985 22.16163 -17.72013 -0 0 9.897047 -16.68157 10.03381 6.711626 5.589604 -18.48156 -3.773577 -83.59093 26.90017 5.512563 0 0 -19.04154 0.7296838 10.22251 11.28084
80.14281 102.8513 329.3572 4.592661 -7.911805 14.59476 0.1199459 -7.070081 2.691145 -0 15.75159 -0 -2.874575 -9.424826 -7.604581 -5.583548 8.326281 -8.586645 -0 30.99974 -0 -6.26891 -14.4207 15.71601 -3.112085 0.1609913 3.873329 0.4849612 7.633107 -5.451769 3.592959 24.67894 3.463114 0.8168346 -14.42217 7.739562 0.03237671 -13.40571 8.747544 89.62755 22.25889 -17.45646 -0 0 9.644218 -16.51586 9.88648 6.688626 5.595959 -18.47612 -3.687476 -83.91562 26.98301 5.643632 0 0 -18.61877 0.9554206 10.59214 10.95819
81.41363 102.6903 335.3631 4.486781 -8.011875 14.51628 0.4236131 -5.809425 2.750856 -0 14.16146 -0 -3.489102 -9.706516 -7.441491 -5.357986 7.082982 -8.543806 -0 32.32297 -0 -6.183579 -13.8807 16.22804 -3.057489 0.2556286 3.92658 0.5592009 7.589218 -5.334963 3.641129 24.86017 3.378591 0.849072 -14.55184 7.694098 -0.1050565 -13.53505 8.767901 89.42418 22.34275 -16.92947 -0 0 9.636227 -16.46267 9.723007 6.7936 5.564754 -18.36404 -3.596324 -84.4962 27.04734 6.202907 0 0 -17.86874 1.103421 10.93587 10.74223
82.67349 102.5178 341.3305 4.373062 -8.162258 14.30978 0.7337023 -4.015115 2.813871 -0 12.97497 -0 -4.04972 -9.981481 -7.176428 -5.125738 5.301554 -8.491337 -0 33.59607 -0 -6.070251 -13.20954 16.84972 -2.99006 0.3545292 4.04778 0.596793 7.588628 -5.14897 3.669022 25.04268 3.308784 0.8882694 -14.69838 7.636032 -0.2321015 -13.80272 8.823765 89.1106 22.40718 -16.17101 -0 0 9.849978 -16.51855 9.544886 7.018847 5.499524 -18.15733 -3.503736 -85.30299 27.08234 7.149113 0 0 -16.82672 1.181771 11.2541 10.62456
83.92871 102.3522 347.2452 4.248819 -8.347753 13.98373 1.032252 -1.814066 2.860873 -0 12.21959 -0 -4.554818 -10.20396 -6.82007 -4.897185 3.122296 -8.436263 -0 34.72699 -0 -5.931843 -12.4492 17.5434 -2.913603 0.4488259 4.218772 0.6000127 7.627921 -4.908538 3.676913 25.22034 3.259283 0.9355096 -14.86497 7.571565 -0.3518892 -14.18769 8.906452 88.71916 22.44459 -15.23289 -0 0 10.24723 -16.6767 9.35307 7.351258 5.408048 -17.87748 -3.414047 -86.28739 27.07336 8.412824 0 0 -15.55434 1.207905 11.54904 10.58597
85.18623 102.2095 353.1024 4.110285 -8.547205 13.55165 1.299849 0.6308905 2.871671 -0 11.91206 -0 -5.005761 -10.31433 -6.384393 -4.683759 0.7242689 -8.388681 -0 35.59731 -0 -5.769902 -11.65296 18.26149 -2.832067 0.5267524 4.41624 0.5721561 7.702323 -4.632688 3.665319 25.3849 3.237246 0.9928814 -15.05667 7.508385 -0.4699308 -14.66289 9.004821 88.29099 22.44717 -14.18241 -0 0 10.77839 -16.92856 9.147911 7.774205 5.301484 -17.5532 -3.332389 -87.38497 27.00546 9.903467 0 0 -14.13313 1.206879 11.82433 10.59873
86.45375 102.102 358.9077 3.954269 -8.736946 13.03239 1.51872 3.14437 2.82859 -0 12.05837 -0 -5.406708 -10.24947 -5.881743 -4.497162 -1.700691 -8.360482 -0 36.08253 -0 -5.58375 -10.87754 18.95365 -2.749147 0.575664 4.615208 0.5171621 7.806389 -4.341999 3.634963 25.52737 3.250095 1.062879 -15.27914 7.454565 -0.5929352 -15.19887 9.106854 87.86967 22.40887 -13.09269 -0 0 11.38952 -17.26441 8.92952 8.269385 5.192394 -17.21599 -3.264146 -88.52412 26.86765 11.52213 0 0 -12.65239 1.206936 12.08439 10.63138
